<?xml version="1.0" encoding="UTF-8" standalone="no"?>
<svg
   xmlns:dc="http://purl.org/dc/elements/1.1/"
   xmlns:cc="http://creativecommons.org/ns#"
   xmlns:rdf="http://www.w3.org/1999/02/22-rdf-syntax-ns#"
   xmlns:svg="http://www.w3.org/2000/svg"
   xmlns="http://www.w3.org/2000/svg"
   xmlns:sodipodi="http://sodipodi.sourceforge.net/DTD/sodipodi-0.dtd"
   xmlns:inkscape="http://www.inkscape.org/namespaces/inkscape"
   width="100%"
   height="100%"
   viewBox="0 0 32 32"
   version="1.1"
   xml:space="preserve"
   style="fill-rule:evenodd;clip-rule:evenodd;stroke-linejoin:round;stroke-miterlimit:1.41421;"
   id="svg949"
   sodipodi:docname="bi_sign.svg"
   inkscape:version="0.92.3 (2405546, 2018-03-11)"><defs
   id="defs953" /><sodipodi:namedview
   pagecolor="#ffffff"
   bordercolor="#666666"
   borderopacity="1"
   objecttolerance="10"
   gridtolerance="10"
   guidetolerance="10"
   inkscape:pageopacity="0"
   inkscape:pageshadow="2"
   inkscape:window-width="1918"
   inkscape:window-height="1059"
   id="namedview951"
   showgrid="false"
   showguides="true"
   inkscape:guide-bbox="true"
   inkscape:snap-bbox="true"
   inkscape:bbox-paths="true"
   inkscape:bbox-nodes="true"
   inkscape:snap-bbox-edge-midpoints="true"
   inkscape:snap-bbox-midpoints="true"
   inkscape:zoom="26.96875"
   inkscape:cx="18.303719"
   inkscape:cy="12.870347"
   inkscape:window-x="1920"
   inkscape:window-y="0"
   inkscape:window-maximized="0"
   inkscape:current-layer="svg949"><sodipodi:guide
     position="16.9175,22.718"
     orientation="0,1"
     id="guide1600"
     inkscape:locked="false" /><sodipodi:guide
     position="16.86,9.282"
     orientation="0,1"
     id="guide1602"
     inkscape:locked="false" /></sodipodi:namedview>
<metadata
   id="metadata929">
<rdf:RDF>

     <rdf:Description
   rdf:about="">
       <dc:title>Mutant Standard emoji v0.3.1</dc:title>
     </rdf:Description>

    <cc:work
   rdf:about="">
        <cc:license
   rdf:resource="http://creativecommons.org/licenses/by-nc-sa/4.0/" />
        <cc:attributionName>Dzuk</cc:attributionName>
        <cc:attributionURL>http://mutant.tech/</cc:attributionURL>
    </cc:work>

<cc:Work
   rdf:about=""><dc:format>image/svg+xml</dc:format><dc:type
     rdf:resource="http://purl.org/dc/dcmitype/StillImage" /><dc:title></dc:title></cc:Work></rdf:RDF>
</metadata>
<rect
   id="ace_sign"
   x="0"
   y="0"
   width="32"
   height="32"
   style="fill:none;" /><clipPath
   id="_clip1"><rect
     x="0"
     y="0"
     width="32"
     height="32"
     id="rect932" /></clipPath><g
   id="outline"><path
     inkscape:connector-curvature="0"
     id="path935"
     d="m 24.099,0.001 0.1,0.001 0.099,0.003 0.099,0.005 0.098,0.005 0.099,0.007 0.098,0.008 0.099,0.009 0.098,0.01 0.097,0.012 0.098,0.013 0.097,0.014 0.097,0.015 0.097,0.016 0.097,0.017 0.096,0.019 0.096,0.02 0.096,0.021 0.095,0.022 0.095,0.023 0.095,0.025 0.094,0.025 0.094,0.027 0.094,0.028 0.093,0.029 0.093,0.03 0.092,0.031 0.092,0.032 0.092,0.034 0.091,0.034 0.091,0.036 0.09,0.037 0.09,0.038 0.09,0.039 0.089,0.04 0.088,0.041 0.088,0.042 0.088,0.044 0.087,0.044 0.086,0.045 0.086,0.047 0.085,0.047 0.085,0.049 0.084,0.05 0.084,0.051 0.083,0.051 0.083,0.053 0.081,0.054 0.082,0.055 0.08,0.056 0.08,0.057 0.08,0.058 0.078,0.059 0.078,0.06 0.078,0.061 0.076,0.062 0.076,0.063 0.075,0.064 0.075,0.065 0.074,0.066 0.073,0.067 0.072,0.067 0.071,0.069 0.071,0.07 0.07,0.071 0.069,0.071 0.067,0.073 0.067,0.072 0.066,0.074 0.065,0.075 0.064,0.075 0.063,0.076 0.062,0.076 0.061,0.078 0.06,0.078 0.059,0.078 0.058,0.08 0.057,0.08 0.056,0.08 0.055,0.082 0.054,0.081 0.053,0.083 0.051,0.083 0.051,0.084 0.05,0.084 0.049,0.085 0.047,0.085 0.047,0.086 0.045,0.086 0.044,0.087 0.044,0.088 0.042,0.088 0.041,0.088 0.04,0.089 0.039,0.089 0.038,0.091 0.037,0.09 0.036,0.091 0.034,0.091 0.034,0.092 0.032,0.092 0.031,0.092 0.03,0.093 0.029,0.093 0.028,0.094 0.027,0.094 0.025,0.094 0.025,0.095 0.023,0.095 0.022,0.095 0.021,0.096 0.02,0.096 0.019,0.096 0.017,0.097 0.016,0.097 0.015,0.097 0.014,0.097 0.013,0.098 0.012,0.097 0.01,0.098 0.009,0.098 0.008,0.099 0.007,0.099 0.005,0.098 0.004,0.099 0.004,0.099 10e-4,0.1 L 32,7.994 v 16.012 l -0.001,0.093 -10e-4,0.1 -0.004,0.099 -0.004,0.099 -0.005,0.098 -0.007,0.099 -0.008,0.099 -0.009,0.098 -0.01,0.098 -0.012,0.097 -0.013,0.098 -0.014,0.097 -0.015,0.097 -0.016,0.097 -0.017,0.097 -0.019,0.096 -0.02,0.096 -0.021,0.096 -0.022,0.095 -0.023,0.095 -0.025,0.095 -0.025,0.094 -0.027,0.094 -0.028,0.094 -0.029,0.093 -0.03,0.093 -0.031,0.092 -0.032,0.092 -0.034,0.092 -0.034,0.091 -0.036,0.091 -0.037,0.09 -0.038,0.091 -0.039,0.089 -0.04,0.089 -0.041,0.088 -0.042,0.088 -0.044,0.088 -0.044,0.087 -0.045,0.086 -0.047,0.086 -0.047,0.085 -0.049,0.085 -0.05,0.085 -0.051,0.083 -0.051,0.083 -0.053,0.083 -0.054,0.081 -0.055,0.082 -0.056,0.08 -0.057,0.08 -0.058,0.08 -0.059,0.078 -0.06,0.078 -0.061,0.078 -0.062,0.076 -0.063,0.076 -0.064,0.075 -0.065,0.075 -0.066,0.073 -0.067,0.073 -0.067,0.073 -0.069,0.071 -0.07,0.071 -0.071,0.07 -0.071,0.069 -0.073,0.067 -0.072,0.067 -0.074,0.066 -0.075,0.065 -0.075,0.064 -0.076,0.063 -0.076,0.062 -0.078,0.061 -0.078,0.06 -0.078,0.059 -0.08,0.058 -0.08,0.057 -0.08,0.056 -0.082,0.055 -0.081,0.054 -0.083,0.053 -0.083,0.051 -0.084,0.051 -0.084,0.05 -0.085,0.049 -0.085,0.047 -0.086,0.047 -0.086,0.045 -0.087,0.044 -0.088,0.044 -0.088,0.042 -0.088,0.041 -0.089,0.04 -0.09,0.039 -0.09,0.038 -0.09,0.037 -0.091,0.036 -0.091,0.034 -0.092,0.034 -0.092,0.032 -0.092,0.031 -0.093,0.03 -0.093,0.029 -0.094,0.028 -0.094,0.027 -0.094,0.025 -0.095,0.025 -0.095,0.023 -0.095,0.022 -0.096,0.021 -0.096,0.02 -0.096,0.019 -0.097,0.017 -0.097,0.016 -0.097,0.015 -0.097,0.014 -0.098,0.013 -0.097,0.012 -0.098,0.01 -0.099,0.009 -0.098,0.008 -0.099,0.007 -0.098,0.005 -0.099,0.005 -0.099,0.003 -0.1,10e-4 L 24.006,32 H 7.994 L 7.901,31.999 7.801,31.998 7.702,31.995 7.603,31.99 7.505,31.985 7.406,31.978 7.308,31.97 7.209,31.961 7.111,31.951 7.014,31.939 6.916,31.926 6.819,31.912 6.722,31.897 6.625,31.881 6.528,31.864 6.432,31.845 6.336,31.825 6.24,31.804 6.145,31.782 6.05,31.759 5.955,31.734 5.861,31.709 5.767,31.682 5.673,31.654 5.58,31.625 5.487,31.595 5.395,31.564 5.303,31.532 5.211,31.498 5.12,31.464 5.029,31.428 4.938,31.391 4.849,31.353 4.759,31.314 4.67,31.274 4.582,31.233 4.494,31.191 4.406,31.147 4.319,31.103 4.233,31.058 4.147,31.011 4.062,30.964 3.977,30.915 3.893,30.865 3.809,30.814 3.726,30.763 3.643,30.71 3.562,30.656 3.48,30.601 3.4,30.545 3.32,30.488 3.24,30.43 3.162,30.371 3.084,30.311 3.006,30.25 2.93,30.188 2.854,30.125 2.779,30.061 2.704,29.996 2.631,29.93 2.558,29.863 2.485,29.796 2.414,29.727 2.343,29.657 2.273,29.586 2.204,29.515 2.137,29.442 2.07,29.369 2.004,29.296 1.939,29.221 1.875,29.146 1.812,29.07 1.75,28.994 1.689,28.916 1.629,28.838 1.57,28.76 1.512,28.68 1.455,28.6 1.399,28.52 1.344,28.438 1.29,28.357 1.237,28.274 1.186,28.191 1.135,28.107 1.085,28.023 1.036,27.938 0.989,27.853 0.942,27.767 0.897,27.681 0.853,27.594 0.809,27.506 0.767,27.418 0.726,27.33 0.686,27.241 0.647,27.151 0.609,27.061 0.572,26.971 0.536,26.88 0.502,26.789 0.468,26.697 0.436,26.605 0.405,26.513 0.375,26.42 0.346,26.327 0.318,26.233 0.291,26.139 0.266,26.045 0.241,25.95 0.218,25.855 0.196,25.76 0.175,25.664 0.155,25.568 0.137,25.472 0.119,25.375 0.103,25.278 0.088,25.181 0.074,25.084 0.061,24.986 0.049,24.889 0.039,24.791 0.03,24.692 0.022,24.594 0.015,24.495 0.01,24.397 0.005,24.298 0.002,24.199 0.001,24.099 0,24.006 V 7.994 L 0.001,7.901 0.002,7.801 0.005,7.702 0.01,7.603 0.015,7.505 0.022,7.406 0.03,7.308 0.039,7.209 0.049,7.111 0.061,7.014 0.074,6.916 0.088,6.819 0.103,6.722 0.119,6.625 0.137,6.528 0.155,6.432 0.175,6.336 0.196,6.24 0.218,6.145 0.241,6.05 0.266,5.955 0.291,5.861 0.318,5.767 0.346,5.673 0.375,5.58 0.405,5.487 0.436,5.395 0.468,5.303 0.502,5.211 0.536,5.12 0.572,5.029 0.609,4.939 0.647,4.849 0.686,4.759 0.726,4.67 0.767,4.582 0.809,4.494 0.853,4.406 0.897,4.319 0.942,4.233 0.989,4.147 1.036,4.062 1.085,3.977 1.135,3.893 1.186,3.809 1.237,3.726 1.29,3.643 1.344,3.562 1.399,3.48 1.455,3.4 1.512,3.32 1.57,3.24 1.629,3.162 1.689,3.084 1.75,3.006 1.812,2.93 1.875,2.854 1.939,2.779 2.004,2.704 2.07,2.63 2.137,2.558 2.204,2.485 2.273,2.414 2.343,2.343 2.414,2.273 2.485,2.204 2.557,2.137 2.631,2.07 2.704,2.004 2.779,1.939 2.854,1.875 2.93,1.812 3.006,1.75 3.084,1.689 3.162,1.629 3.24,1.57 3.32,1.512 3.4,1.455 3.48,1.399 3.562,1.344 3.643,1.29 3.726,1.237 3.809,1.186 3.893,1.135 3.977,1.085 4.062,1.036 4.147,0.989 4.233,0.942 4.319,0.897 4.406,0.853 4.494,0.809 4.582,0.767 4.67,0.726 4.759,0.686 4.849,0.647 4.939,0.609 5.029,0.572 5.12,0.536 5.211,0.502 5.303,0.468 5.395,0.436 5.487,0.405 5.58,0.375 5.673,0.346 5.767,0.318 5.861,0.291 5.955,0.266 6.05,0.241 6.145,0.218 6.24,0.196 6.336,0.175 6.432,0.155 6.528,0.136 6.625,0.119 6.722,0.103 6.819,0.088 6.916,0.074 7.014,0.061 7.111,0.049 7.209,0.039 7.308,0.03 7.406,0.022 7.505,0.015 7.603,0.01 7.702,0.005 7.801,0.002 7.901,0.001 7.994,0 H 24.006 Z M 8.006,4 H 7.95 L 7.901,4.001 7.851,4.003 7.802,4.005 7.752,4.008 7.703,4.011 7.654,4.015 7.605,4.02 7.556,4.025 7.507,4.031 7.458,4.037 7.409,4.044 7.361,4.051 7.312,4.06 7.264,4.068 7.216,4.078 7.168,4.087 7.12,4.098 7.073,4.109 7.025,4.121 6.978,4.133 6.931,4.146 6.884,4.159 6.837,4.173 6.79,4.187 6.744,4.202 6.697,4.218 6.651,4.234 6.606,4.251 6.56,4.268 6.515,4.286 6.469,4.305 6.424,4.323 6.38,4.343 6.335,4.363 6.291,4.384 6.247,4.405 6.203,4.426 6.16,4.449 6.116,4.471 6.073,4.495 6.031,4.518 5.988,4.543 5.946,4.568 5.904,4.593 5.863,4.619 5.822,4.645 5.781,4.672 5.74,4.7 5.7,4.727 5.66,4.756 5.62,4.785 5.581,4.814 5.542,4.844 5.503,4.875 5.465,4.906 5.427,4.937 5.39,4.969 5.352,5.002 5.315,5.035 5.279,5.068 5.243,5.102 5.207,5.137 5.172,5.172 5.137,5.207 5.102,5.243 5.068,5.279 5.035,5.315 5.002,5.352 4.969,5.39 4.937,5.427 4.906,5.465 4.875,5.503 4.844,5.542 4.814,5.581 4.785,5.62 4.756,5.66 4.728,5.7 4.7,5.74 4.672,5.781 4.645,5.822 4.619,5.863 4.593,5.904 4.567,5.946 4.543,5.988 4.518,6.031 4.495,6.073 4.471,6.116 4.449,6.16 4.426,6.203 4.405,6.247 4.384,6.291 4.363,6.335 4.343,6.38 4.323,6.424 4.305,6.469 4.286,6.514 4.268,6.56 4.251,6.606 4.234,6.651 4.218,6.697 4.202,6.744 4.187,6.79 4.173,6.837 4.159,6.884 4.146,6.931 4.133,6.978 4.121,7.025 4.109,7.073 4.098,7.12 4.088,7.168 4.078,7.216 4.068,7.264 4.06,7.312 4.051,7.361 4.044,7.409 4.037,7.458 4.031,7.507 4.025,7.556 4.02,7.605 4.015,7.654 4.011,7.703 4.008,7.752 4.005,7.802 4.003,7.851 4.001,7.901 4,7.95 v 0.056 15.988 0.056 l 0.001,0.049 0.002,0.05 0.002,0.049 0.003,0.05 0.003,0.049 0.004,0.049 0.005,0.049 0.005,0.049 0.006,0.049 0.006,0.049 0.007,0.049 0.007,0.048 0.009,0.049 0.008,0.048 0.01,0.048 0.009,0.048 0.011,0.048 0.011,0.047 0.012,0.048 0.012,0.047 0.013,0.047 0.013,0.047 0.014,0.047 0.014,0.047 0.015,0.046 0.016,0.047 0.016,0.046 0.017,0.045 0.017,0.046 0.018,0.046 0.019,0.045 0.018,0.045 0.02,0.044 0.02,0.045 0.021,0.044 0.021,0.044 0.021,0.044 0.023,0.043 0.022,0.044 0.024,0.043 0.023,0.042 0.025,0.043 0.024,0.042 0.026,0.042 0.026,0.041 0.026,0.041 0.027,0.041 0.028,0.041 0.028,0.04 0.028,0.04 0.029,0.04 0.029,0.039 0.03,0.039 0.031,0.039 0.031,0.038 0.031,0.038 0.032,0.037 0.033,0.038 0.033,0.037 0.033,0.036 0.034,0.036 0.035,0.036 0.035,0.035 0.035,0.035 0.036,0.035 0.036,0.034 0.036,0.033 0.037,0.033 0.038,0.033 0.037,0.032 0.038,0.031 0.038,0.031 0.039,0.031 0.039,0.03 0.039,0.029 0.04,0.029 0.04,0.029 0.04,0.027 0.041,0.028 0.041,0.027 0.041,0.026 0.041,0.026 0.042,0.026 0.042,0.024 0.043,0.025 0.042,0.023 0.043,0.024 0.044,0.022 0.043,0.023 0.044,0.021 0.044,0.021 0.044,0.021 0.045,0.02 0.044,0.02 0.045,0.019 0.045,0.018 0.046,0.018 0.046,0.017 0.045,0.017 0.046,0.016 0.047,0.016 0.046,0.015 0.047,0.014 0.047,0.014 0.047,0.013 0.047,0.013 0.047,0.012 0.048,0.012 0.047,0.011 0.048,0.011 0.048,0.009 0.048,0.01 0.048,0.008 0.049,0.009 0.048,0.007 0.049,0.007 0.049,0.006 0.049,0.006 0.049,0.005 0.049,0.005 0.049,0.004 0.049,0.003 0.05,0.003 0.049,0.002 0.05,0.002 L 7.95,28 h 0.056 15.988 0.056 l 0.049,-0.001 0.05,-0.002 0.049,-0.002 0.05,-0.003 0.049,-0.003 0.049,-0.004 0.049,-0.005 0.049,-0.005 0.049,-0.006 0.049,-0.006 0.049,-0.007 0.048,-0.007 0.049,-0.009 0.048,-0.008 0.048,-0.01 0.048,-0.009 0.048,-0.011 0.047,-0.011 0.048,-0.012 0.047,-0.012 0.048,-0.013 0.046,-0.013 0.047,-0.014 0.047,-0.014 0.046,-0.015 0.047,-0.016 0.046,-0.016 0.046,-0.017 0.045,-0.017 0.046,-0.018 0.045,-0.019 0.045,-0.018 0.044,-0.02 0.045,-0.02 0.044,-0.021 0.044,-0.021 0.044,-0.021 0.043,-0.023 0.043,-0.022 0.043,-0.024 0.043,-0.023 0.043,-0.025 0.042,-0.024 0.042,-0.026 0.041,-0.026 0.041,-0.026 0.041,-0.027 0.041,-0.028 0.04,-0.028 0.04,-0.028 0.04,-0.029 0.039,-0.029 0.039,-0.03 0.039,-0.031 0.038,-0.031 0.038,-0.031 0.038,-0.032 0.037,-0.033 0.037,-0.033 0.036,-0.033 0.036,-0.034 0.036,-0.035 0.036,-0.035 0.034,-0.035 0.035,-0.036 0.034,-0.036 0.033,-0.036 0.033,-0.037 0.033,-0.038 0.032,-0.037 0.031,-0.038 0.031,-0.038 0.031,-0.039 0.03,-0.039 0.029,-0.039 0.029,-0.04 0.028,-0.04 0.028,-0.04 0.028,-0.041 0.027,-0.041 0.026,-0.041 0.026,-0.041 0.026,-0.042 0.024,-0.042 0.025,-0.043 0.024,-0.043 0.023,-0.042 0.022,-0.044 0.023,-0.043 0.021,-0.044 0.021,-0.044 0.021,-0.044 0.02,-0.045 0.02,-0.044 0.018,-0.045 0.019,-0.045 0.018,-0.046 0.017,-0.046 0.017,-0.045 0.016,-0.046 0.016,-0.047 0.015,-0.046 0.014,-0.047 0.014,-0.046 0.013,-0.048 0.013,-0.047 0.012,-0.047 0.012,-0.048 0.011,-0.047 0.011,-0.048 0.009,-0.048 0.01,-0.048 0.008,-0.048 0.009,-0.049 0.007,-0.048 0.007,-0.049 0.006,-0.049 0.006,-0.049 0.005,-0.049 0.005,-0.049 0.004,-0.049 0.003,-0.049 0.003,-0.049 0.002,-0.05 0.002,-0.05 L 28,24.05 V 23.994 8.006 7.95 L 27.999,7.901 27.997,7.851 27.995,7.801 27.992,7.752 27.989,7.703 27.985,7.654 27.98,7.605 27.975,7.556 27.969,7.507 27.963,7.458 27.956,7.409 27.949,7.361 27.94,7.312 27.932,7.264 27.922,7.216 27.913,7.168 27.902,7.12 27.891,7.073 27.879,7.025 27.867,6.978 27.854,6.931 27.841,6.883 27.827,6.837 27.813,6.79 27.798,6.744 27.782,6.697 27.766,6.651 27.749,6.606 27.732,6.56 27.714,6.514 27.695,6.469 27.677,6.424 27.657,6.38 27.637,6.335 27.616,6.291 27.595,6.247 27.574,6.203 27.551,6.16 27.529,6.116 27.506,6.074 27.482,6.031 27.457,5.988 27.433,5.946 27.407,5.904 27.381,5.863 27.355,5.822 27.328,5.781 27.3,5.74 27.272,5.7 27.244,5.66 27.215,5.62 27.186,5.581 27.156,5.542 27.125,5.503 27.094,5.465 27.063,5.427 27.031,5.39 26.998,5.352 26.965,5.315 26.932,5.279 26.898,5.243 26.863,5.207 26.829,5.172 26.793,5.137 26.757,5.102 26.721,5.068 26.685,5.035 26.648,5.002 26.611,4.969 26.573,4.937 26.535,4.906 26.497,4.875 26.458,4.844 26.419,4.814 26.38,4.785 26.34,4.756 26.3,4.728 26.26,4.7 26.219,4.672 26.178,4.645 26.137,4.619 26.096,4.593 26.054,4.567 26.012,4.543 25.969,4.518 25.926,4.495 25.883,4.471 25.84,4.449 25.797,4.426 25.753,4.405 25.709,4.384 25.665,4.363 25.62,4.343 25.576,4.323 25.531,4.305 25.485,4.286 25.44,4.268 25.395,4.251 25.349,4.234 25.303,4.218 25.256,4.202 25.21,4.187 25.163,4.173 25.116,4.159 25.069,4.146 25.022,4.133 24.975,4.121 24.927,4.109 24.88,4.098 24.832,4.087 24.784,4.078 24.736,4.068 24.688,4.06 24.639,4.051 24.591,4.044 24.542,4.037 24.493,4.031 24.444,4.025 24.395,4.02 24.346,4.015 24.297,4.011 24.248,4.008 24.198,4.005 24.149,4.003 24.099,4.001 24.05,4 h -0.056 z" /></g><path
   d="M 30,8 C 30,6.409 29.368,4.883 28.243,3.757 27.117,2.632 25.591,2 24,2 19.276,2 12.724,2 8,2 6.409,2 4.883,2.632 3.757,3.757 2.632,4.883 2,6.409 2,8 2,12.724 2,19.276 2,24 2,25.591 2.632,27.117 3.757,28.243 4.883,29.368 6.409,30 8,30 c 4.724,0 11.276,0 16,0 1.591,0 3.117,-0.632 4.243,-1.757 C 29.368,27.117 30,25.591 30,24 30,19.276 30,12.724 30,8 Z"
   style="fill:#7d459a;fill-opacity:1"
   id="path938"
   inkscape:connector-curvature="0" /><text
   xml:space="preserve"
   style="font-style:normal;font-variant:normal;font-weight:bold;font-stretch:normal;font-size:18.43062973px;line-height:1.25;font-family:'Bitstream Vera Sans';-inkscape-font-specification:'Bitstream Vera Sans Bold';letter-spacing:0px;word-spacing:0px;writing-mode:lr-tb;fill:#ffffff;fill-opacity:1;stroke:none;stroke-width:0.46076572"
   x="5.5562763"
   y="22.718"
   id="text1606"><tspan
     sodipodi:role="line"
     id="tspan1604"
     x="5.5562763"
     y="22.718"
     style="fill:#ffffff;fill-opacity:1;stroke-width:0.46076572">BI</tspan></text>
</svg>